<?xml version="1.0" encoding="UTF-8"?>
<svg id="Layer_1" data-name="Layer 1" xmlns="http://www.w3.org/2000/svg" viewBox="0 0 244.31 244.31">
  <defs>
    <style>
      .cls-1 {
        stroke-miterlimit: 10;
        
      }

      .cls-1, .cls-2 {
        fill: none;
        stroke: white;
        stroke-width: 5px;
      }

      .cls-2 {
        stroke-linecap: round;
        stroke-linejoin: round;
      }
    </style>
  </defs>
  <rect class="cls-1" x="38.28" y="38.28" width="167.76" height="167.76" transform="translate(-50.6 122.16) rotate(-45)"/>
  <path class="cls-2" d="M54.82,141.46c7.48,13.48,11.77,15.97,14.35,15.39,6.71-1.5,7.99-25.03,5.48-42.26-3.05-20.89-13.32-33.32-11.74-34.43,2.17-1.53,30.85,52.16,42.26,48.26,10.18-3.47,1.26-50.78,5.22-51.39,2.91-.45,6.1,25.29,19.3,61.57,10.16,27.9,16.46,35.16,12.26,42-10.47,17.05-69.06,3.47-68.87-3.65,.11-4.1,19.78-9.45,113.22-14.09"/>
  <g>
    <path class="cls-2" d="M132.63,84.2c6.49,12.78,26.5,56.09,9.13,99.39-3.09,7.71-6.99,14.47-11.22,20.35"/>
    <path class="cls-2" d="M122.16,86.27c7.26-2.12,15.03-4.74,23.19-7.98,11.24-4.46,21.2-9.32,29.87-14.1"/>
    <path class="cls-2" d="M130.96,110.62c3.38,.49,33.5,4.41,47.99-14.43,1.89-2.46,3.82-5.7,5.23-9.92"/>
  </g>
</svg>